# xmcd
#
# Track frame offsets: 
#        150
#        18193
#        32735
#        47986
#        66065
#        83103
#        98367
#        117506
#        132741
#        151867
#        172182
#        192865
#
# Disc length: 2904 seconds
#
# Revision: 8
# Processed by: cddbd v1.5.2PL0 Copyright (c) Steve Scherf et al.
# Submitted via: ExactAudioCopyFreeDBPlugin 1.0
#
DISCID=9b0b560c
DTITLE=Mary J. Blige - Stronger With Each Tear
DYEAR=2009
DGENRE=R&B
TTITLE0=Tonight
TTITLE1=The One (feat. Drake)
TTITLE2=Said and Done
TTITLE3=Good Love (feat. T.I.)
TTITLE4=I Feel Good
TTITLE5=I Am
TTITLE6=Each Tear
TTITLE7=I Love U (Yes I Du)
TTITLE8=Hood Love (feat. Trey Songz)
TTITLE9=Kitchen
TTITLE10=In The Morning
TTITLE11=I Can See In Color
EXTD=YEAR: 2009
EXTT0=
EXTT1=
EXTT2=
EXTT3=
EXTT4=
EXTT5=
EXTT6=
EXTT7=
EXTT8=
EXTT9=
EXTT10=
EXTT11=
PLAYORDER=
